<?xml version="1.0" encoding="UTF-8"?>
<svg version="1.1" xmlns="http://www.w3.org/2000/svg" width="2122" height="2122">
<path d="M0 0 C700.26 0 1400.52 0 2122 0 C2122 700.26 2122 1400.52 2122 2122 C1421.74 2122 721.48 2122 0 2122 C0 1421.74 0 721.48 0 0 Z " fill="#FEFEFE" transform="translate(0,0)"/>
<path d="M0 0 C0.86223679 0.34883743 1.72447357 0.69767487 2.61283875 1.05708313 C11.11863275 4.52418407 19.52601362 8.20761406 27.91894531 11.93798828 C40.94458859 17.72467631 53.99859742 23.42550833 67.1640625 28.88671875 C79.23469931 33.89658202 91.2079022 39.10976723 103.1640625 44.38671875 C115.16254391 49.68196201 127.17730817 54.91806533 139.2890625 59.94921875 C152.57191667 65.46802759 165.76368427 71.18358689 178.93432617 76.96484375 C186.67700257 80.36040758 194.42611467 83.72798238 202.23828125 86.9609375 C225.9486934 96.80983808 248.80564372 108.20340922 271.67797852 119.85400391 C272.49926743 120.27072861 273.32055634 120.68745331 274.16673279 121.11680603 C275.89646417 121.99638868 277.62338948 122.88150321 279.34803772 123.77101135 C280.22076828 124.21678024 281.09349884 124.66254913 281.99267578 125.12182617 C283.15937302 125.72216927 283.15937302 125.72216927 284.34963989 126.3346405 C288.40263073 128.17702809 292.65203181 129.08588717 296.9765625 130.07421875 C348.23772263 142.70353492 396.4159227 167.63398598 437.6640625 200.38671875 C438.59734375 201.12535156 439.530625 201.86398437 440.4921875 202.625 C446.5123342 207.46691799 452.2284584 212.57514713 457.88671875 217.828125 C460.15336705 219.91624685 462.44739141 221.94678371 464.7890625 223.94921875 C481.56619252 238.52892841 481.56619252 238.52892841 486.68264025 247.09130985 C488.85852049 250.31750317 490.52396517 252.11535973 494.3851105 253.03436601 C497.91646711 253.27682262 501.38953757 253.29321157 504.92903137 253.23954773 C506.29724192 253.24386862 507.66544562 253.25127453 509.03362483 253.26149398 C512.78850782 253.28070076 516.54204253 253.25642458 520.29679739 253.2250849 C524.34805257 253.19894889 528.39918548 253.21330745 532.45048523 253.22290039 C539.46994895 253.23415427 546.48900069 253.22027451 553.50840187 253.18976402 C563.66701391 253.1459973 573.82529338 253.14464452 583.98397907 253.15437386 C600.47872134 253.16939193 616.97330714 253.1561382 633.46801758 253.12231445 C634.94871303 253.11928875 634.94871303 253.11928875 636.45932152 253.11620191 C638.45712799 253.11210976 640.45493446 253.10801587 642.45274092 253.10392024 C643.44316979 253.10189341 644.43359866 253.09986657 645.45404053 253.09777832 C646.44530507 253.09574485 647.43656961 253.09371138 648.45787247 253.09161628 C659.4615727 253.06948453 670.46527898 253.05459393 681.46899414 253.04223633 C682.4540117 253.04112265 683.43902927 253.04000896 684.45389584 253.03886154 C700.88338505 253.02090152 717.31285044 253.01897867 733.74234694 253.02602416 C743.87387085 253.02939606 754.00515023 253.01683947 764.13662162 252.98362277 C771.08042728 252.96157004 778.0241599 252.95318017 784.96799997 252.95547541 C788.97322722 252.95623144 792.97816192 252.95030292 796.98332596 252.9267292 C800.6530851 252.90520179 804.32238622 252.90218572 807.99218651 252.91356633 C809.94177209 252.91479266 811.89133947 252.89622694 813.84082919 252.87685508 C821.04841216 252.92075599 826.37649517 253.81314256 832.6640625 257.38671875 C833.7159375 257.94359375 834.7678125 258.50046875 835.8515625 259.07421875 C841.88588913 264.0357762 846.18297794 271.1633514 847.0703125 278.953125 C847.29085987 288.35395646 846.49019719 295.55486555 840.6640625 303.38671875 C834.22589845 309.91818952 827.4670588 313.49743685 818.296525 313.76424217 C815.67551576 313.78074999 813.05763693 313.7811539 810.43690491 313.76766968 C808.97638218 313.77112833 807.51586206 313.7758943 806.05534738 313.78185141 C802.0503793 313.7943627 798.04562597 313.78819046 794.04065716 313.77889276 C789.71814535 313.77210307 785.39567038 313.78258314 781.07316589 313.79083252 C772.60842726 313.80417323 764.14376843 313.8012905 755.67902667 313.7925946 C748.79901097 313.78581935 741.91901764 313.78490065 735.03899956 313.78816605 C734.05977989 313.78862575 733.08056022 313.78908544 732.07166724 313.78955907 C730.08238582 313.79051825 728.0931044 313.79149089 726.103823 313.79247685 C707.44938576 313.80103185 688.79499275 313.79119511 670.14056277 313.77507575 C654.13641096 313.76167457 638.13232445 313.7639988 622.12817383 313.77783203 C603.5420197 313.79388951 584.95590434 313.80020566 566.36974424 313.79099524 C564.38747657 313.7900396 562.40520889 313.78909649 560.42294121 313.78816605 C559.44763678 313.78770322 558.47233236 313.78724039 557.46747326 313.78676354 C550.5967403 313.784174 543.72603195 313.78854393 536.85530281 313.79560471 C528.48062889 313.80402185 520.10603932 313.80173513 511.73137505 313.78576247 C507.45900094 313.77788233 503.18676742 313.77478375 498.91439438 313.78470993 C495.00174585 313.79366279 491.08936797 313.78871433 487.17674392 313.77277727 C485.76296016 313.76943194 484.34915345 313.771118 482.93538452 313.77840464 C470.98088386 313.83528217 463.99273031 312.30106834 455.15234375 303.95703125 C451.93161615 300.63012581 449.07126714 297.09016686 446.1953125 293.46484375 C434.97764506 279.82360619 422.23147949 266.48265751 408.359375 255.53515625 C406.59003567 254.1248133 404.85349495 252.67210624 403.15625 251.17578125 C367.66508024 220.03046901 322.07436035 200.38525921 276.95703125 188.30297852 C275.87035156 188.00061279 274.78367187 187.69824707 273.6640625 187.38671875 C272.9585173 187.20840515 272.25297211 187.03009155 271.52604675 186.84637451 C264.60018517 184.97178968 258.43715417 182.0052093 252.07213783 178.72580338 C250.15569399 177.73907659 248.23381855 176.7636942 246.31034851 175.79074097 C240.84686604 173.02440321 235.39408608 170.23720506 229.94262695 167.44726562 C211.59127105 158.06409595 193.09798501 149.53861067 174.01083374 141.76153564 C169.42515888 139.87779074 164.87603016 137.91644456 160.3359375 135.92578125 C159.58904663 135.59894348 158.84215576 135.27210571 158.07263184 134.93536377 C156.60264471 134.29114711 155.1330051 133.64613684 153.66372681 133.00030518 C149.58178367 131.20654707 145.49586012 129.42189046 141.41015625 127.63671875 C140.58742722 127.27712067 139.76469818 126.91752258 138.91703796 126.54702759 C130.78659491 122.99688219 122.63435379 119.49846729 114.4765625 116.01171875 C101.19278738 110.3331438 87.92469617 104.61912963 74.6640625 98.88671875 C59.96197944 92.53170139 45.25177016 86.19646229 30.52319336 79.90307617 C22.90154141 76.64431304 15.2923753 73.35868333 7.6953125 70.04296875 C6.01427751 69.31070843 4.33320679 68.57853012 2.65209961 67.84643555 C-0.53703654 66.45758097 -3.72326632 65.06233785 -6.90795898 63.66333008 C-24.2546344 56.08253575 -39.51138484 50.23504623 -58.3359375 56.38671875 C-72.45760014 62.9395766 -79.58930766 71.95380634 -85.51171875 86.21875 C-88.66453064 98.33690375 -86.93166333 111.97667292 -80.98046875 122.8671875 C-74.18543345 133.74288743 -65.3606985 139.43196777 -54.1015625 145.0234375 C-53.40150589 145.37230011 -52.70144928 145.72116272 -51.98017883 146.08059692 C-49.76598063 147.183744 -47.55100858 148.2853256 -45.3359375 149.38671875 C-10.931163 166.51076524 -10.931163 166.51076524 1.22973633 172.99169922 C7.49241704 176.32295786 13.83285929 179.48594665 20.18701172 182.63842773 C26.68522387 185.87235403 33.1082634 189.23438755 39.51953125 192.63671875 C45.19372319 195.63794424 50.91428447 198.53330286 56.6640625 201.38671875 C94.45052653 220.18198175 94.45052653 220.18198175 100.6640625 231.38671875 C100.99100098 231.95801514 101.31793945 232.52931152 101.65478516 233.11791992 C102.93157655 235.98807531 103.43293395 238.74585531 104.00390625 241.8359375 C104.25731835 243.15588217 104.5122736 244.47553125 104.76855469 245.79492188 C104.9030603 246.49109619 105.03756592 247.18727051 105.17614746 247.90454102 C112.81814416 286.87982062 127.39211104 325.97388054 150.6640625 358.38671875 C151.70626953 359.83884766 151.70626953 359.83884766 152.76953125 361.3203125 C166.38744853 379.85514151 181.93473115 396.91973895 200.6640625 410.38671875 C201.23382812 410.80083008 201.80359375 411.21494141 202.390625 411.64160156 C218.39678665 423.15275929 236.08212833 431.89474326 254.6640625 438.38671875 C255.70820312 438.76183594 256.75234375 439.13695312 257.828125 439.5234375 C274.00798674 444.9238399 291.16905453 447.71483649 308.11425781 449.22290039 C318.49242473 450.25332621 327.73081312 453.2208917 334.6640625 461.38671875 C340.05179907 470.20545174 342.45808703 478.83236244 340.015625 489.1171875 C336.97786942 497.49048814 332.05162597 503.32124785 324.4140625 507.88671875 C297.1754684 520.17935185 251.68923844 503.01244208 225.47607422 493.453125 C199.01155958 483.4169208 174.10536681 468.87276997 152.6640625 450.38671875 C151.5479478 449.45314302 150.4306895 448.52093338 149.3125 447.58984375 C138.64035592 438.64954417 128.54052456 429.14160224 119.6640625 418.38671875 C119.2525293 417.89429688 118.84099609 417.401875 118.41699219 416.89453125 C87.60362302 379.89243044 65.99470281 336.09630565 52.1015625 290.13671875 C51.74263916 288.95070068 51.74263916 288.95070068 51.37646484 287.74072266 C50.08258866 283.29863988 49.30378183 278.97889362 48.6640625 274.38671875 C-9.84336313 274.42271378 -68.35073916 274.47963792 -126.85811482 274.5646397 C-133.76616811 274.5746706 -140.67422167 274.58450586 -147.58227539 274.59423828 C-148.61340931 274.59569599 -148.61340931 274.59569599 -149.66537422 274.59718315 C-171.93383917 274.62857233 -194.20229201 274.64705084 -216.47077525 274.65881122 C-240.01008186 274.67131303 -263.54932081 274.69857473 -287.08859473 274.74133182 C-301.18575937 274.76646286 -315.28283432 274.7798363 -329.38002167 274.77814832 C-339.04828787 274.77811856 -348.71646274 274.79275422 -358.38469335 274.81888303 C-363.96191982 274.83352387 -369.538959 274.84173614 -375.1162014 274.83252144 C-380.22727681 274.82421995 -385.33797631 274.83442963 -390.44899604 274.85905537 C-392.29308303 274.86472784 -394.13720577 274.86374092 -395.98128184 274.8552312 C-412.18160957 274.78690769 -426.09344502 277.14002415 -438.5859375 288.41796875 C-449.30602489 299.62533284 -451.91833949 311.35995641 -451.6796875 326.2421875 C-451.13001075 338.74504333 -444.87083627 348.33458406 -435.8984375 356.63671875 C-424.38485603 366.40987511 -412.26012988 367.84480926 -397.40034485 367.75852966 C-395.92384589 367.76110957 -394.44734876 367.76501543 -392.97085637 367.77011925 C-388.94490483 367.78032362 -384.91917479 367.77213709 -380.89323413 367.76082242 C-376.53943875 367.75192577 -372.18567332 367.76048497 -367.83187866 367.76702881 C-360.29700547 367.77616294 -352.76219325 367.77487381 -345.22731972 367.7668438 C-334.3235114 367.75558911 -323.41978954 367.76467337 -312.51598873 367.7794056 C-294.81005843 367.80314985 -277.10413882 367.81653897 -259.39819336 367.82055664 C-258.3396907 367.82080151 -257.28118804 367.82104638 -256.19060954 367.82129867 C-244.37577073 367.82384571 -232.56093276 367.82441064 -220.74609375 367.82336426 C-216.45825196 367.8230312 -212.17041016 367.82274582 -207.88256836 367.82250977 C-206.29539419 367.82241558 -206.29539419 367.82241558 -204.6761559 367.8223195 C-187.03056558 367.82171463 -169.38502466 367.83659541 -151.73945493 367.86334282 C-140.86287448 367.8791424 -129.98645354 367.88141174 -119.10987141 367.8662088 C-111.66010379 367.85674449 -104.21043238 367.86149802 -96.76067606 367.87742262 C-92.46379776 367.8861175 -88.16717512 367.88825571 -83.87030983 367.87289619 C-79.93430572 367.85893876 -75.99876396 367.86344913 -72.06278481 367.88241721 C-70.64172817 367.88601988 -69.22063465 367.88290781 -67.79961327 367.87226754 C-59.73310955 367.81595325 -53.37232156 368.26292646 -46.3359375 372.38671875 C-45.35704047 372.93839955 -45.35704047 372.93839955 -44.35836774 373.50122541 C-37.87410222 377.33314028 -33.96750765 384.39751551 -31.9609375 391.51171875 C-30.43596097 400.96657324 -31.63618258 408.39909311 -36.73828125 416.65625 C-41.53319359 422.78764158 -48.53994076 427.36940227 -56.27735373 428.72747718 C-61.62348376 429.27692989 -66.98382025 429.17809806 -72.35092163 429.12602234 C-74.16209627 429.13062779 -75.97326578 429.13787485 -77.78442061 429.1475175 C-82.73583305 429.16635805 -87.68650878 429.14813656 -92.63787079 429.12367833 C-97.98769521 429.10386562 -103.33743674 429.11885658 -108.68727112 429.12966919 C-117.95085819 429.14378933 -127.21422535 429.13639475 -136.47779465 429.11459923 C-149.88645351 429.08334726 -163.29491564 429.08812443 -176.70359488 429.10214243 C-198.48015723 429.12421266 -220.25664108 429.12178805 -242.03320312 429.10180664 C-243.33562465 429.10061731 -244.63804617 429.09942799 -245.97993501 429.09820262 C-247.28396438 429.09701046 -248.58799376 429.0958183 -249.93153918 429.09459001 C-268.41366979 429.07774717 -286.89579161 429.06671584 -305.37792969 429.06274414 C-307.32826379 429.06231581 -307.32826379 429.06231581 -309.31799857 429.06187882 C-331.01243031 429.05760791 -352.70684812 429.06544709 -374.40127528 429.07944232 C-387.7729721 429.0872875 -401.14456351 429.08278765 -414.51624741 429.06218574 C-423.68071149 429.04855554 -432.84514186 429.04506411 -442.00961493 429.04946359 C-447.29337632 429.05156103 -452.57701438 429.04865641 -457.86075401 429.03247643 C-462.70424386 429.01769114 -467.54753557 429.01683116 -472.39103611 429.02667794 C-474.13654541 429.02777911 -475.88206728 429.02385261 -477.62755017 429.01418706 C-494.52339475 428.92575788 -509.99052473 430.50588895 -523.0859375 442.38671875 C-530.04450699 449.78254126 -535.30339221 460.21145428 -536.3359375 470.38671875 C-536.45775391 471.49660156 -536.45775391 471.49660156 -536.58203125 472.62890625 C-537.29737605 485.85194652 -532.26670543 498.64761072 -523.52734375 508.40625 C-515.05912173 516.48715209 -503.33513325 521.71554484 -491.65744305 521.64005184 C-490.90020169 521.64314911 -490.14296032 521.64624639 -489.36277226 521.64943752 C-486.82279969 521.65740509 -484.28306249 521.6511546 -481.74308777 521.64500427 C-479.90466118 521.64785881 -478.06623578 521.65159675 -476.22781259 521.65614277 C-471.17362095 521.66613319 -466.11949864 521.66374779 -461.06530178 521.65941584 C-455.61527808 521.65694166 -450.1652727 521.66600531 -444.71525574 521.67379761 C-435.26992162 521.68584811 -425.82460437 521.69095083 -416.37926292 521.691679 C-402.71304245 521.69300397 -389.046863 521.7081098 -375.38065699 521.72717417 C-353.19575258 521.7580248 -331.01084622 521.78221471 -308.82592773 521.80004883 C-308.16210204 521.80058562 -307.49827635 521.80112241 -306.81433473 521.80167547 C-291.32717224 521.81417012 -275.84000927 521.82495078 -260.35284424 521.83374023 C-254.98091633 521.83681025 -249.60898843 521.83990258 -244.23706055 521.84301758 C-243.57404834 521.84339939 -242.91103613 521.84378121 -242.22793264 521.84417459 C-219.46107456 521.85735401 -196.69424558 521.88203091 -173.92740995 521.91676098 C-160.29508994 521.93705848 -146.66283336 521.94733933 -133.03049812 521.94477177 C-123.68985748 521.94373713 -114.34926698 521.95336677 -105.00864383 521.9714108 C-99.61821792 521.98146084 -94.22790296 521.98657843 -88.83747101 521.97864342 C-83.90208036 521.9714646 -78.96690583 521.97804728 -74.0315427 521.99552882 C-72.24692063 521.99941093 -70.46227884 521.99823704 -68.67766538 521.99147194 C-56.06400355 521.94745162 -45.31369699 522.72182235 -35.3359375 531.38671875 C-29.41758285 538.44321853 -26.81469957 545.24297649 -27.02734375 554.44921875 C-27.96865262 563.40952592 -31.75365665 570.33388223 -38.3359375 576.38671875 C-46.10277306 582.28951378 -53.48182038 583.5118563 -63.11397076 583.51141739 C-63.76172288 583.51276162 -64.40947501 583.51410586 -65.07685599 583.51549083 C-67.23832938 583.51878905 -69.39973118 583.51501975 -71.561203 583.5112915 C-73.13024135 583.51227835 -74.69927947 583.51371598 -76.26831704 583.51556468 C-79.67518733 583.518619 -83.08203808 583.51851964 -86.48890877 583.51600838 C-92.03275186 583.51194224 -97.57657971 583.5147211 -103.12042236 583.51835632 C-110.12686494 583.52244454 -117.13330411 583.5246859 -124.1397479 583.52477232 C-137.91034487 583.52497521 -151.6809067 583.53744409 -165.45149231 583.55438232 C-167.620448 583.55698808 -169.78940371 583.55958689 -171.95835942 583.56217885 C-175.24535046 583.56611723 -178.53234148 583.57006377 -181.81933248 583.57404007 C-194.20808551 583.58898231 -206.5968396 583.60260885 -218.9855957 583.61474609 C-220.68407269 583.61641644 -220.68407269 583.61641644 -222.41686235 583.61812052 C-240.7635509 583.63569333 -259.11021739 583.63856469 -277.45691296 583.63689569 C-296.30131714 583.63561603 -315.14563932 583.65336719 -333.99001199 583.68791366 C-345.60866247 583.70854919 -357.22711643 583.71391193 -368.84577731 583.69958535 C-376.81098109 583.69111708 -384.77603224 583.70088191 -392.74120381 583.72489485 C-397.3341414 583.7381826 -401.92671272 583.74342398 -406.5196476 583.72677422 C-410.72995784 583.7116806 -414.93957949 583.71983222 -419.1498299 583.74594375 C-420.66731477 583.75133777 -422.18485863 583.74842004 -423.70230248 583.73602679 C-436.84228685 583.63664652 -447.33619313 586.62338529 -457.3359375 595.38671875 C-457.94050781 595.886875 -458.54507813 596.38703125 -459.16796875 596.90234375 C-467.88096807 604.72316231 -471.62496473 615.63529033 -472.55078125 627.03125 C-472.99325197 639.40273125 -469.29218167 651.02309199 -461.484375 660.67578125 C-453.51496369 669.15320285 -442.02439328 675.02716296 -430.29103124 675.5127266 C-428.57129864 675.51346123 -428.57129864 675.51346123 -426.81682396 675.5142107 C-426.1727683 675.51585453 -425.52871264 675.51749837 -424.86514014 675.51919201 C-422.70421013 675.52350819 -420.54334754 675.52073148 -418.38241577 675.51802063 C-416.81851544 675.519723 -415.25461555 675.52187278 -413.69071639 675.52443188 C-410.28890395 675.52902844 -406.88710971 675.53044983 -403.48529434 675.52946663 C-397.95019058 675.52787383 -392.41510487 675.53307609 -386.88000488 675.53909302 C-378.84302145 675.54720677 -370.80604119 675.55215014 -362.76905441 675.55538368 C-350.06295181 675.56088117 -337.35687604 675.5777798 -324.65078735 675.59672546 C-320.30338864 675.60308228 -315.95598986 675.60939071 -311.60859108 675.61570263 C-309.97885151 675.61807827 -309.97885151 675.61807827 -308.31618791 675.62050191 C-295.94728475 675.63843999 -283.5783797 675.65466541 -271.20947266 675.66967773 C-270.07875197 675.67105361 -268.94803127 675.67242948 -267.78304632 675.67384704 C-249.46466073 675.69577116 -231.14628206 675.70653186 -212.82788567 675.71404848 C-194.01858686 675.72212225 -175.20934724 675.74542135 -156.40008223 675.78200215 C-144.80001539 675.80401686 -133.20007032 675.81369493 -121.59998365 675.80750182 C-113.64739908 675.80432485 -105.69491842 675.81567307 -97.742366 675.83839623 C-93.15569079 675.8510511 -88.56924711 675.85724945 -83.98256302 675.84597969 C-79.77909247 675.83578441 -75.57607067 675.84411558 -71.37265296 675.86684265 C-69.85647289 675.8718219 -68.34025225 675.87013788 -66.82409208 675.86090998 C-55.9764914 675.80010744 -45.74006327 676.95357753 -36.8984375 683.83984375 C-30.74151375 689.93519826 -27.32526186 697.01661502 -27.0234375 705.63671875 C-27.291751 715.55090263 -29.85512019 721.9854344 -36.79296875 729.18359375 C-44.91411511 736.21942562 -53.1884338 737.54032406 -63.54345703 737.5112915 C-64.47369029 737.51270165 -65.40392355 737.5141118 -66.3623457 737.51556468 C-69.48116232 737.51921616 -72.59993344 737.51588173 -75.71875 737.51269531 C-77.95452408 737.51409023 -80.1902979 737.51598964 -82.42607117 737.51835632 C-87.24308484 737.52285345 -92.06008999 737.52470941 -96.87710571 737.52481842 C-104.50101884 737.52595921 -112.12488359 737.53880162 -119.7487793 737.55438232 C-121.03594188 737.55695518 -122.32310446 737.55952803 -123.64927197 737.56217885 C-126.2815425 737.56744552 -128.91381299 737.572731 -131.54608345 737.57803488 C-138.3101801 737.59140882 -145.07427807 737.60368873 -151.83837891 737.61474609 C-152.51699215 737.61585965 -153.19560539 737.61697322 -153.89478266 737.61812052 C-164.87555255 737.63567083 -175.85628555 737.63856622 -186.83706713 737.63689569 C-198.12730133 737.6356136 -209.41740064 737.65376714 -220.70759201 737.68791366 C-227.03994832 737.70634267 -233.37202947 737.71574308 -239.70440674 737.70343781 C-245.66681478 737.69196411 -251.62873114 737.70379197 -257.59107399 737.73307228 C-259.77223638 737.73968861 -261.95344413 737.73788794 -264.13458824 737.72677422 C-281.57156529 737.64534079 -294.27119301 739.63555001 -307.265625 752.26171875 C-316.56652397 762.16138804 -319.89785171 773.62512643 -319.6484375 786.984375 C-318.54089076 799.04279013 -313.19292845 810.51394037 -304.30859375 818.79296875 C-292.70448726 828.16816765 -281.10371842 829.84119741 -266.58691406 829.94946289 C-265.0152285 829.97157728 -263.44355774 829.99476514 -261.87190247 830.01893616 C-256.7402557 830.09189295 -251.60856555 830.13335338 -246.4765625 830.171875 C-244.69708947 830.1866653 -242.91761712 830.20153741 -241.13814545 830.21648979 C-233.72442157 830.27655009 -226.31072001 830.3284807 -218.89680862 830.35848331 C-208.33988265 830.40140285 -197.78591424 830.49185642 -187.23007417 830.65064913 C-179.77056276 830.75895377 -172.31183016 830.81216257 -164.85155272 830.82596868 C-160.41414364 830.83553556 -155.9798274 830.867459 -151.54328156 830.95863533 C-130.99896825 831.36003855 -116.25413181 830.80699252 -99.67591095 817.17973137 C-46.48669722 776.42331534 37.36274345 765.98219207 101.98974609 773.90405273 C121.92734774 776.65559454 141.57061631 781.02883474 160.6640625 787.38671875 C161.88198486 787.78262207 161.88198486 787.78262207 163.12451172 788.18652344 C185.60826853 795.52475875 208.96928967 805.17637315 228.51171875 818.6328125 C229.63477417 819.4055249 229.63477417 819.4055249 230.78051758 820.19384766 C232.14828164 821.15890467 233.49810121 822.150226 234.82299805 823.17333984 C239.59801188 826.58523007 243.04317314 826.73016897 248.79882812 825.90405273 C249.74435547 825.73333252 250.68988281 825.5626123 251.6640625 825.38671875 C252.56318359 825.235979 253.46230469 825.08523926 254.38867188 824.92993164 C257.20165159 824.4248372 259.99371359 823.85654902 262.7890625 823.26171875 C263.82111816 823.04217529 264.85317383 822.82263184 265.91650391 822.59643555 C296.0831868 816.00844036 324.18056115 805.41460561 351.6640625 791.38671875 C352.48310059 790.9695459 353.30213867 790.55237305 354.14599609 790.12255859 C376.57261141 778.54676709 396.966938 763.392659 415.51953125 746.34765625 C417.47041133 744.56379141 419.46154298 742.84719081 421.4765625 741.13671875 C428.96174452 734.61000516 436.1481697 727.4894287 442.5390625 719.88671875 C447.73997551 713.79972426 453.55631807 709.80709159 461.73813748 709.13371909 C463.38976396 709.13160581 463.38976396 709.13160581 465.07475662 709.12944984 C466.35197531 709.12300095 467.629194 709.11655206 468.94511628 709.10990775 C470.35511454 709.11284977 471.76511241 709.11598519 473.17510986 709.11929321 C474.67871572 709.11555564 476.18231964 709.11095369 477.68592048 709.10556257 C481.814655 709.09333024 485.9433085 709.09359331 490.07205701 709.09595132 C494.52618486 709.09635943 498.98028672 709.08532086 503.43440247 709.07583618 C512.15994707 709.05922372 520.88546466 709.05372652 529.61102375 709.05261143 C536.70414416 709.05166103 543.79725565 709.04755115 550.89037323 709.04121017 C571.0024701 709.02359677 591.11454563 709.01437141 611.22665027 709.01587112 C612.85300087 709.01599099 612.85300087 709.01599099 614.51220703 709.01611328 C615.59776531 709.01619504 616.68332359 709.0162768 617.80177757 709.01636104 C635.39332902 709.01717388 652.98479483 708.99803706 670.57632151 708.96983655 C688.6409441 708.94110625 706.70552492 708.92729635 724.77017093 708.9290241 C734.91136462 708.92968797 745.05246855 708.92419699 755.19364166 708.902668 C763.82850153 708.88445426 772.46323094 708.88011044 781.09810171 708.89368685 C785.50240313 708.90021563 789.90645429 708.90033701 794.31073189 708.88298035 C798.34632445 708.86724044 802.38146853 708.87012243 806.41705021 708.88754861 C807.87329957 708.89061651 809.32958248 708.88699399 810.78579226 708.87582846 C820.54198429 708.80600497 829.02285333 709.61120967 836.9765625 715.69921875 C844.61725669 723.33991294 847.08962311 730.46374789 847.10449219 741.26489258 C846.94561481 747.5528258 845.2193735 752.17226262 841.6640625 757.38671875 C841.0659375 758.31484375 840.4678125 759.24296875 839.8515625 760.19921875 C834.6474979 765.40328335 828.11630129 769.01276029 820.70672143 769.63511574 C819.66097164 769.6343563 818.61522185 769.63359686 817.53778267 769.63281441 C816.3240649 769.6367965 815.11034714 769.6407786 813.85985005 769.64488137 C812.52156633 769.63917608 811.18328339 769.63328491 809.84500122 769.62722778 C808.41676599 769.62810024 806.98853106 769.62985197 805.56029785 769.63240612 C801.64026989 769.63687572 797.72035133 769.62888128 793.80033731 769.61884999 C789.57136446 769.61021223 785.34239777 769.61313589 781.11341858 769.61465454 C773.78796045 769.61570318 766.46253795 769.60942872 759.13708878 769.59817886 C748.54572672 769.58192406 737.9543819 769.57671588 727.36300872 769.57420288 C710.17917053 769.56982575 692.99535132 769.55651615 675.81152344 769.53759766 C659.11914159 769.51923933 642.4267649 769.50508259 625.734375 769.49658203 C624.1909693 769.49579386 624.1909693 769.49579386 622.61638369 769.49498977 C617.45450294 769.49237969 612.29262216 769.48985228 607.13074136 769.48736596 C564.30850192 769.4666329 521.48628319 769.43140686 478.6640625 769.38671875 C478.37740723 769.99862061 478.09075195 770.61052246 477.79541016 771.2409668 C474.17701686 778.10373301 466.62535911 783.55601027 460.76953125 788.55859375 C458.30679222 790.69692745 455.92918907 792.91756474 453.5390625 795.13671875 C447.18907996 800.91817668 440.49926951 806.19335561 433.6640625 811.38671875 C432.79056152 812.05356689 432.79056152 812.05356689 431.89941406 812.73388672 C391.74105585 843.24844153 347.31745345 862.92432567 299.6640625 878.38671875 C300.64246094 879.44294434 300.64246094 879.44294434 301.640625 880.52050781 C306.56869262 885.88287048 311.35249209 891.2589895 315.6640625 897.13671875 C316.16478271 897.81371826 316.66550293 898.49071777 317.18139648 899.18823242 C326.11079047 911.35953533 334.01472677 924.00168609 341.41064453 937.15869141 C342.19009777 938.54421736 342.97410832 939.92720217 343.76513672 941.30615234 C362.39175958 973.8068897 372.98802116 1011.22070332 378.1015625 1048.13671875 C378.2655957 1049.30025879 378.42962891 1050.46379883 378.59863281 1051.66259766 C379.45313351 1058.43265182 379.74840239 1065.02425315 379.70336914 1071.84082031 C379.69911297 1073.07942307 379.69911297 1073.07942307 379.69477081 1074.3430481 C379.68743599 1076.35761763 379.6761594 1078.37217218 379.6640625 1080.38671875 C380.53877243 1080.38519987 381.41348235 1080.38368099 382.31469864 1080.38211608 C434.14648679 1080.29262172 485.97826676 1080.22398158 537.8101167 1080.18245743 C544.03234681 1080.17745455 550.25457677 1080.17227727 556.47680664 1080.16699219 C557.71555098 1080.16594295 558.95429531 1080.1648937 560.23057736 1080.16381267 C580.29338645 1080.14640306 600.35614974 1080.11486229 620.41893166 1080.07810757 C641.00214813 1080.04071364 661.5853406 1080.01848617 682.16858965 1080.01036477 C694.87159029 1080.0048738 707.57446147 1079.9875252 720.27742226 1079.95505288 C728.98596707 1079.93392415 737.69444487 1079.92751501 746.40301346 1079.93271324 C751.42890357 1079.93527755 756.4545673 1079.93132102 761.48041725 1079.90989685 C766.0830103 1079.89042019 770.6852249 1079.88945605 775.28783543 1079.90312317 C776.95151841 1079.90481213 778.61522509 1079.89974739 780.27886152 1079.88718602 C792.06445402 1079.80338377 800.9238068 1081.03770948 809.87109375 1089.32421875 C815.23223907 1095.49128787 817.78626718 1102.84663111 817.791713 1110.95242661 C817.79472897 1111.84551924 817.79774494 1112.73861187 817.8008523 1113.65876791 C817.79908283 1114.6326555 817.79731336 1115.6065431 817.79549026 1116.60994244 C817.79856922 1118.17669217 817.79856922 1118.17669217 817.80171037 1119.77509341 C817.80739452 1123.29820935 817.80592137 1126.82128639 817.80450439 1130.34440613 C817.80708721 1132.88659676 817.81010014 1135.42878699 817.8135078 1137.97097665 C817.82074224 1144.23987811 817.82328089 1150.50876729 817.82383685 1156.77767244 C817.82475041 1164.28530624 817.8314177 1171.79293217 817.83818367 1179.30056259 C817.85424655 1197.44640392 817.86014718 1215.59224441 817.86493242 1233.73809157 C817.86726798 1242.321197 817.87087057 1250.90430176 817.8746278 1259.48740666 C817.88746326 1288.86483204 817.89818269 1318.24225705 817.9016304 1347.61968517 C817.90185203 1349.46395277 817.90207382 1351.30822036 817.90229575 1353.15248795 C817.90251639 1355.00122312 817.90273688 1356.84995829 817.9029572 1358.69869345 C817.90339976 1362.40760879 817.90384687 1366.11652412 817.90429688 1369.82543945 C817.90440627 1370.74503537 817.90451566 1371.66463129 817.90462836 1372.61209376 C817.90825952 1402.43440834 817.92418183 1432.25669862 817.94748724 1462.07900389 C817.97207873 1493.60462131 817.98580291 1525.13022484 817.98699832 1556.65585214 C817.98716978 1560.116015 817.9873852 1563.57617786 817.98763275 1567.03634071 C817.98768852 1567.88833783 817.98774429 1568.74033494 817.98780175 1569.61815015 C817.98895275 1583.33373971 817.99997893 1597.04930435 818.01451981 1610.7648855 C818.02888034 1624.5486099 818.03212429 1638.33230232 818.02407983 1652.11603215 C818.01962156 1660.30571513 818.02349207 1668.49529495 818.03931834 1676.68496439 C818.05020833 1682.79895869 818.0454336 1688.91283488 818.03454646 1695.02683357 C818.03258171 1697.50127506 818.03570359 1699.97572683 818.04439083 1702.45015385 C818.0554466 1705.81171175 818.04802021 1709.17274611 818.0359993 1712.53428936 C818.04739209 1713.97756201 818.04739209 1713.97756201 818.05901504 1715.44999167 C817.98158656 1725.46984997 815.69671279 1734.02219058 808.6640625 1741.38671875 C801.24581985 1748.04981095 794.70897583 1749.68847706 784.90865302 1749.64086908 C783.43342484 1749.64563507 783.43342484 1749.64563507 781.92839408 1749.65049734 C778.61222684 1749.65874886 775.29623828 1749.65269524 771.98006821 1749.64678097 C769.57656308 1749.64977598 767.17305892 1749.65364547 764.76955646 1749.6583133 C759.51672488 1749.66647961 754.26394536 1749.66839007 749.01111254 1749.66487902 C741.14736693 1749.65965561 733.28365906 1749.66590426 725.41991778 1749.6743925 C712.01867934 1749.68851151 698.61745268 1749.69305978 685.2162075 1749.69242096 C671.63130666 1749.69179952 658.04641728 1749.69547359 644.46151924 1749.70440102 C643.17548808 1749.7052407 643.17548808 1749.7052407 641.86347648 1749.70609734 C638.37172198 1749.70838893 634.8799675 1749.71070727 631.38821305 1749.71306064 C594.94038246 1749.7375852 558.49255654 1749.74772853 522.04471865 1749.75258779 C518.12007294 1749.75311148 514.19542723 1749.75363732 510.27078152 1749.75416446 C508.80996463 1749.75435805 508.80996463 1749.75435805 507.31963628 1749.75455555 C485.75020359 1749.75745969 464.18077222 1749.76361735 442.6113404 1749.77026177 C433.73318261 1749.77298518 424.85502478 1749.77561622 415.97686696 1749.77824742 C414.99594255 1749.77853833 414.01501814 1749.77882924 413.00436875 1749.77912897 C356.78269191 1749.79575455 300.56101571 1749.80760966 244.3393364 1749.81004238 C242.23475447 1749.81013701 240.13017255 1749.81023202 238.02559062 1749.81032741 C228.52330839 1749.81075517 219.02102616 1749.81116054 209.51874392 1749.81156577 C205.28132429 1749.81174737 201.04390467 1749.81193226 196.80648504 1749.81211784 C194.68557873 1749.81220986 192.56467243 1749.81230026 190.44376612 1749.81238903 C123.37053766 1749.8152038 56.29733923 1749.83693473 -10.77587891 1749.8737793 C-60.78885708 1749.90124705 -110.8018295 1749.92713652 -160.81481552 1749.9337244 C-162.32438639 1749.93392456 -162.32438639 1749.93392456 -163.86445365 1749.93412876 C-185.95520681 1749.93700085 -208.04595986 1749.93841831 -230.13671321 1749.93848697 C-238.04087592 1749.93852666 -245.94503862 1749.93868361 -253.84920133 1749.93890149 C-255.81561172 1749.93895514 -257.78202211 1749.93900325 -259.74843249 1749.93904582 C-291.10179472 1749.93978976 -322.45512735 1749.95546751 -353.80848032 1749.97865712 C-385.38110313 1750.0019061 -416.95368781 1750.00916812 -448.52631697 1749.99447625 C-452.88680792 1749.99244851 -457.24729892 1749.99059459 -461.60778999 1749.98884392 C-462.46258438 1749.98849386 -463.31737876 1749.98814381 -464.198076 1749.98778314 C-477.74614987 1749.98269169 -491.2941552 1749.99440939 -504.84221496 1750.01308847 C-518.15640017 1750.03109597 -531.47048658 1750.03133276 -544.78467179 1750.01252615 C-552.59521081 1750.00202914 -560.40545492 1750.00526276 -568.21596764 1750.02864491 C-574.00803058 1750.04446271 -579.79981265 1750.03431786 -585.59185048 1750.01390128 C-587.92529089 1750.00973084 -590.25876491 1750.01400991 -592.59216947 1750.02759897 C-595.75502724 1750.04480431 -598.91633146 1750.03124156 -602.07913136 1750.01001257 C-602.98090315 1750.02232068 -603.88267493 1750.0346288 -604.81177313 1750.04730989 C-613.23976016 1749.92871321 -620.00761941 1746.73845906 -626.2109375 1741.07421875 C-631.0819707 1735.82407211 -634.45878247 1729.25830857 -634.463588 1722.02863437 C-634.46660397 1721.13092337 -634.46961994 1720.23321238 -634.4727273 1719.30829802 C-634.47095783 1718.31895863 -634.46918836 1717.32961924 -634.46736526 1716.31029987 C-634.4694179 1715.25737831 -634.47147053 1714.20445674 -634.47358537 1713.11962846 C-634.47928511 1709.55584046 -634.47779446 1705.99209074 -634.47637939 1702.42829895 C-634.47896133 1699.86166024 -634.481974 1697.29502194 -634.4853828 1694.7283842 C-634.49297357 1688.39131552 -634.4951564 1682.05425527 -634.49571185 1675.71718253 C-634.49662443 1668.1296665 -634.50328883 1660.5421583 -634.51005867 1652.95464564 C-634.52613206 1634.61384492 -634.53202347 1616.27304502 -634.53680742 1597.93223852 C-634.53914202 1589.25857893 -634.54274452 1580.58492001 -634.5465028 1571.91126093 C-634.55933946 1542.23000213 -634.57005858 1512.5487437 -634.5735054 1482.86748219 C-634.57372704 1481.00363981 -634.57394882 1479.13979744 -634.57417075 1477.27595506 C-634.57439139 1475.40756655 -634.57461188 1473.53917805 -634.5748322 1471.67078954 C-634.57527476 1467.92237206 -634.57572187 1464.17395459 -634.57617188 1460.42553711 C-634.57628127 1459.49614484 -634.57639066 1458.56675258 -634.57650336 1457.60919691 C-634.5801346 1427.46852593 -634.59605658 1397.327879 -634.61936224 1367.18721723 C-634.64394781 1335.33312575 -634.65767765 1303.47904802 -634.65887332 1271.62494677 C-634.65904478 1268.12940164 -634.65926021 1264.63385651 -634.65950775 1261.13831139 C-634.6595914 1259.84722559 -634.6595914 1259.84722559 -634.65967675 1258.53005725 C-634.66082831 1244.66704928 -634.67185924 1230.80406593 -634.68639481 1216.94106628 C-634.70074781 1203.01150551 -634.70400357 1189.08197638 -634.69595483 1175.15241025 C-634.6914929 1166.87344601 -634.69538161 1158.59458378 -634.71119334 1150.31563291 C-634.722068 1144.1386485 -634.71732001 1137.96176979 -634.70642146 1131.7847875 C-634.70445381 1129.28205822 -634.70759177 1126.77931882 -634.71626583 1124.2766038 C-634.72729007 1120.88167157 -634.71991812 1117.48726067 -634.7078743 1114.09234333 C-634.71546949 1113.11470977 -634.72306468 1112.13707621 -634.73089004 1111.1298174 C-634.66735679 1102.86618394 -632.94223134 1096.5058805 -627.2734375 1090.19921875 C-626.58121094 1089.40128906 -625.88898438 1088.60335938 -625.17578125 1087.78125 C-616.58715565 1080.53939651 -608.49211789 1079.66505636 -597.54232788 1079.78544617 C-596.05701413 1079.78326264 -594.57170228 1079.77887897 -593.08640063 1079.77250034 C-589.02698074 1079.76137225 -584.96822616 1079.78124714 -580.90889096 1079.80639064 C-576.52320539 1079.82805252 -572.1375551 1079.82067118 -567.75183105 1079.81687927 C-560.16062967 1079.81426189 -552.56964374 1079.8299034 -544.97849655 1079.85806847 C-534.00311017 1079.89876334 -523.02782761 1079.91173181 -512.05237396 1079.91800842 C-494.24400411 1079.92894221 -476.43574899 1079.96219158 -458.62744141 1080.00952148 C-441.33187432 1080.05544076 -424.03633843 1080.09082109 -406.74072266 1080.11206055 C-405.67400547 1080.11337416 -404.60728829 1080.11468778 -403.50824635 1080.11604121 C-398.15665538 1080.12256656 -392.80506419 1080.12888506 -387.45347285 1080.13510072 C-343.08088161 1080.18690522 -298.70841549 1080.27494559 -254.3359375 1080.38671875 C-254.33938171 1079.50143997 -254.34282593 1078.61616119 -254.34637451 1077.70405579 C-254.34905334 1076.53883896 -254.35173218 1075.37362213 -254.35449219 1074.1730957 C-254.3579364 1073.01969193 -254.36138062 1071.86628815 -254.3649292 1070.67793274 C-254.32905676 1066.605599 -254.04654987 1062.61762841 -253.5859375 1058.57421875 C-253.49723389 1057.78273438 -253.40853027 1056.99125 -253.31713867 1056.17578125 C-246.43408352 997.72345397 -224.69895763 944.98013691 -190.09472656 897.53979492 C-189.03321381 896.08351936 -189.03321381 896.08351936 -187.95025635 894.5978241 C-187.41753113 893.86815933 -186.88480591 893.13849457 -186.3359375 892.38671875 C-187.51341049 892.38085251 -188.69088348 892.37498627 -189.90403748 892.36894226 C-201.06842565 892.31141876 -212.23262455 892.23850588 -223.39681911 892.15100384 C-229.13473001 892.10651325 -234.87257338 892.06721166 -240.6105957 892.0402832 C-246.16099621 892.01403575 -251.71113376 891.97348622 -257.26136971 891.92353249 C-259.36572022 891.90700738 -261.47011605 891.89540468 -263.57452202 891.88910484 C-293.28093175 891.79128513 -319.00998309 885.49555146 -342.3359375 866.38671875 C-343.18671875 865.7009375 -344.0375 865.01515625 -344.9140625 864.30859375 C-359.02751578 852.32547304 -369.01590987 836.59544507 -375.2109375 819.26171875 C-375.64067871 818.06361572 -375.64067871 818.06361572 -376.07910156 816.84130859 C-379.71409275 806.09162044 -380.70510598 795.43560472 -380.6484375 784.13671875 C-380.64279785 782.95231201 -380.6371582 781.76790527 -380.63134766 780.54760742 C-380.46129939 768.23426102 -378.64134547 757.40643473 -374.21875 745.9296875 C-373.8021814 744.83448792 -373.8021814 744.83448792 -373.37719727 743.71716309 C-372.70028979 741.93900722 -372.01861424 740.16266765 -371.3359375 738.38671875 C-372.09776337 738.38085251 -372.85958923 738.37498627 -373.64450073 738.36894226 C-380.90887459 738.31045832 -388.17292692 738.2380777 -395.43700981 738.15100384 C-399.16940938 738.10672945 -402.90171046 738.06738626 -406.63427734 738.0402832 C-442.95094901 737.76825721 -472.09494433 732.47680478 -500.3359375 708.38671875 C-501.00882813 707.81695313 -501.68171875 707.2471875 -502.375 706.66015625 C-519.89940201 690.46461885 -531.95951804 664.56995596 -533.57324219 640.90698242 C-534.40725339 617.79360988 -531.35010788 599.30969722 -521.3359375 578.38671875 C-521.86058594 578.27457031 -522.38523437 578.16242187 -522.92578125 578.046875 C-546.6618867 572.00423917 -568.66021567 553.85151716 -581.30517578 533.14501953 C-595.84757578 508.33820645 -602.24903235 479.29103883 -595.37109375 450.8515625 C-586.49707575 421.14871733 -569.35497826 396.37337534 -542.04296875 380.75390625 C-530.06265347 374.70324197 -515.88791637 368.93729088 -502.3359375 369.38671875 C-502.65046875 368.67128906 -502.965 367.95585938 -503.2890625 367.21875 C-515.06461772 339.80156871 -516.94402973 311.27436599 -506.83984375 283.04296875 C-502.19421792 271.74866803 -496.08721058 261.84567334 -488.3359375 252.38671875 C-487.63855469 251.52433594 -486.94117188 250.66195313 -486.22265625 249.7734375 C-470.27305461 231.02463703 -447.93999752 220.66079131 -424.3359375 215.38671875 C-423.5676392 215.20814317 -422.79934089 215.0295676 -422.00776082 214.84558064 C-418.96738946 214.3234239 -416.1059248 214.25546314 -413.02035809 214.24805355 C-411.73896346 214.24257911 -410.45756883 214.23710466 -409.13734406 214.23146433 C-407.7175139 214.23038818 -406.29768367 214.22940348 -404.87785339 214.22850037 C-403.36798465 214.22393365 -401.85811717 214.21893346 -400.34825116 214.2135368 C-396.19797622 214.1999588 -392.04770948 214.1925383 -387.89741814 214.18611014 C-383.42233516 214.17810473 -378.94726921 214.16440743 -374.47219849 214.15139771 C-366.71839621 214.12963698 -358.96459221 214.111491 -351.21077538 214.09579277 C-340.00002594 214.07309049 -328.78929537 214.04494814 -317.57856194 214.01547349 C-299.39035496 213.967802 -281.20214027 213.9245366 -263.01391602 213.8840332 C-245.34463908 213.84467603 -227.67536899 213.80324927 -210.00610352 213.7590332 C-208.91716375 213.75630893 -207.82822398 213.75358466 -206.70628604 213.75077783 C-201.24345311 213.73709832 -195.7806203 213.72337805 -190.31778753 213.70963752 C-144.99051848 213.59567969 -99.6632346 213.48886879 -54.3359375 213.38671875 C-56.04354248 212.55648193 -56.04354248 212.55648193 -57.78564453 211.70947266 C-62.08236007 209.61617455 -66.37061427 207.50600181 -70.65673828 205.39111328 C-72.49893709 204.48492981 -74.34328342 203.5830966 -76.18994141 202.68603516 C-106.67485111 187.86583191 -130.40081254 167.61923101 -142.51953125 135.22265625 C-152.09535943 107.51238424 -149.77566529 78.53338794 -137.7890625 51.95703125 C-136.41144257 49.34251601 -134.94678079 46.86333827 -133.3359375 44.38671875 C-132.82675781 43.58878906 -132.31757812 42.79085937 -131.79296875 41.96875 C-114.81099604 16.59663401 -90.5018456 -0.49745331 -60.3359375 -6.61328125 C-39.90330965 -10.27476719 -19.08736087 -7.80101538 0 0 Z " fill="#12181A" transform="translate(954.3359375,189.61328125)"/>
<path d="M0 0 C439.56 0 879.12 0 1332 0 C1332 82.83 1332 165.66 1332 251 C892.44 251 452.88 251 0 251 C0 168.17 0 85.34 0 0 Z " fill="#FEFEFE" transform="translate(380,1628)"/>
<path d="M0 0 C106.92 0 213.84 0 324 0 C326.31 10.23 328.62 20.46 331 31 C332.56889146 36.43372163 334.14172589 41.68474613 336 47 C336.44257002 48.32904011 336.88392868 49.65848408 337.32421875 50.98828125 C347.93433934 82.53758021 363.2929475 113.13054812 383.89404297 139.35791016 C385 141 385 141 385 143 C384.10539062 143.01417969 383.21078125 143.02835938 382.2890625 143.04296875 C371.60144623 143.4645485 364.04555275 145.84696033 356 153 C349.6042883 161.71259641 348.56378607 170.61424407 350 181 C352.78572191 189.88939716 358.30889096 195.14972187 366.03515625 199.984375 C370.80462161 202.44970501 375.75751697 202.14323481 381.00975323 202.13422108 C381.93521264 202.13657331 382.86067206 202.13892554 383.8141757 202.14134905 C386.93835921 202.14804542 390.06250119 202.14758063 393.18669128 202.14717102 C395.43999572 202.15046924 397.69329956 202.15419472 399.94660264 202.1583125 C406.15685148 202.16834524 412.36709065 202.17205134 418.57734644 202.17470181 C424.58146113 202.17820091 430.58556848 202.18634779 436.58967855 202.19424575 C452.67816389 202.2150926 468.76665108 202.22556009 484.85514678 202.23437535 C492.46501701 202.23858129 500.07488645 202.24380333 507.68475602 202.24905988 C533.73051794 202.26694976 559.77628009 202.28194635 585.82204723 202.28938007 C587.45727836 202.28985483 589.09250948 202.29033072 590.7277406 202.29080774 C591.53867269 202.29104411 592.34960477 202.29128049 593.18511055 202.29152403 C597.29373581 202.29272523 601.40236107 202.29394068 605.51098633 202.29516602 C606.73404219 202.29552624 606.73404219 202.29552624 607.98180626 202.29589374 C634.42267728 202.30378803 660.86350346 202.32722271 687.3043549 202.35972196 C715.25452435 202.39401369 743.20466757 202.41373057 771.15485841 202.41702431 C774.22267267 202.41744186 777.29048692 202.41792142 780.35830116 202.41844749 C781.49138692 202.41863228 781.49138692 202.41863228 782.6473633 202.4188208 C794.80760691 202.42115357 806.96779846 202.43681771 819.12802352 202.45728934 C831.34917071 202.47753725 843.57025533 202.48302954 855.79141619 202.47351871 C862.41320411 202.4687594 869.03485864 202.47093296 875.65663338 202.49028015 C881.71717664 202.50783497 887.77742639 202.50697647 893.83797244 202.49138286 C896.03181092 202.48899511 898.22566932 202.49339036 900.41947725 202.50521151 C903.40035611 202.52028029 906.3801882 202.51069214 909.36104107 202.49498463 C910.21383151 202.50520683 911.06662196 202.51542904 911.94525453 202.52596101 C919.71283173 202.43655962 925.94483218 199.84413426 932 195 C932.66 195 933.32 195 934 195 C934.41378906 194.14148437 934.41378906 194.14148437 934.8359375 193.265625 C936 191 936 191 937.2890625 188.984375 C941.88918416 181.29060427 942.09674403 173.65989085 941 165 C938.28310012 156.27265222 932.7923528 150.61180063 925 146 C920.52306337 144.22626973 916.65311036 143.70905411 911.8515625 143.5859375 C911.19417084 143.56657135 910.53677917 143.5472052 909.85946655 143.5272522 C907.78143865 143.46797539 905.70335376 143.42128206 903.625 143.375 C902.2070085 143.33677222 900.78903903 143.29771777 899.37109375 143.2578125 C895.91426539 143.16231829 892.45727017 143.07809811 889 143 C890.09474283 141.26460747 891.19149281 139.53048103 892.2890625 137.796875 C892.89959473 136.83104492 893.51012695 135.86521484 894.13916016 134.87011719 C895.82064979 132.2766257 897.56600805 129.75549619 899.375 127.25 C903.97792538 120.73603864 907.98158454 113.88316226 912 107 C912.37946777 106.35756348 912.75893555 105.71512695 913.14990234 105.05322266 C932.20160973 72.71984655 943.31935317 36.74355758 950 0 C1075.73 0 1201.46 0 1331 0 C1331 78.54 1331 157.08 1331 238 C891.77 238 452.54 238 0 238 C0 159.46 0 80.92 0 0 Z " fill="#FEFEFE" transform="translate(380,1330)"/>
<path d="M0 0 C4.01269556 3.51184516 7.93739318 7.11206778 11.8359375 10.75 C13.80030867 12.5432019 15.75765221 14.25006726 17.8125 15.9296875 C20.10138333 17.8574987 22.00126216 19.6724989 23.91015625 21.953125 C26.63917928 25.16584795 29.46309985 28.2543417 32.34765625 31.328125 C42.91078496 42.94916949 51.67760607 55.8364909 59.66015625 69.328125 C60.26657959 70.33552734 60.26657959 70.33552734 60.88525391 71.36328125 C72.63448654 90.99656099 81.18382997 112.13658607 86.66015625 134.328125 C86.99587646 135.63330078 86.99587646 135.63330078 87.33837891 136.96484375 C104.39277875 203.57789518 92.47359058 272.94230914 58.66015625 332.328125 C52.75221115 342.18058971 45.87809011 351.40359399 38.66015625 360.328125 C38.2307373 360.86195801 37.80131836 361.39579102 37.35888672 361.94580078 C35.06063414 364.7782555 32.70853351 367.53774616 30.25619888 370.23805332 C27.68348047 373.09583955 25.34323954 376.05480659 23.02453232 379.12094784 C16.75570691 386.89021472 10.69822876 393.26264426 0.56018829 395.09187508 C-7.28248254 395.91889903 -15.10878487 395.88207502 -22.98527837 395.73859847 C-27.10157374 395.68471053 -31.21667281 395.74171885 -35.332901 395.78382874 C-43.37044318 395.84866496 -51.40440433 395.81253433 -59.44175711 395.73986346 C-68.81866433 395.65833139 -78.19470971 395.67333637 -87.57186571 395.69037312 C-104.31051307 395.71700743 -121.04745545 395.64901294 -137.78564453 395.53051758 C-153.99623491 395.41577455 -170.20459522 395.38044659 -186.41552734 395.42797852 C-204.11039306 395.47976214 -221.80423789 395.48710829 -239.4990809 395.4181003 C-241.38832608 395.41079035 -243.27757135 395.40350293 -245.16681671 395.39623833 C-246.09613464 395.39260353 -247.02545258 395.38896874 -247.98293166 395.38522379 C-254.50650909 395.36245081 -261.02963951 395.37012042 -267.55321503 395.38908577 C-275.50954326 395.41099454 -283.46379458 395.38138513 -291.41963306 395.28789503 C-295.47314083 395.24139989 -299.52351875 395.21639056 -303.57720375 395.25270844 C-330.36066205 395.46696717 -330.36066205 395.46696717 -338.59912419 388.49639362 C-340.92523714 386.16846218 -342.99603545 383.75493872 -344.96352625 381.11850345 C-346.81383636 378.71153315 -348.90491419 376.60081119 -351.04686046 374.45462471 C-382.87044637 342.15937047 -402.66880128 298.76816038 -413.33984375 255.328125 C-413.5203125 254.5949707 -413.70078125 253.86181641 -413.88671875 253.10644531 C-414.89811129 248.8755985 -415.67776944 244.6251171 -416.33984375 240.328125 C-416.47374512 239.48652832 -416.60764648 238.64493164 -416.74560547 237.77783203 C-421.12595594 209.31294491 -419.95515637 181.60989666 -415.33984375 153.328125 C-415.19562988 152.41675781 -415.05141602 151.50539063 -414.90283203 150.56640625 C-408.82654334 113.5047278 -391.55498057 77.35078512 -369.33984375 47.328125 C-368.68749756 46.44253906 -368.68749756 46.44253906 -368.02197266 45.5390625 C-360.80509313 35.83461731 -352.7310648 27.02246059 -344.33984375 18.328125 C-343.44007813 17.38710937 -342.5403125 16.44609375 -341.61328125 15.4765625 C-335.88527064 9.60307861 -329.78802133 4.39268553 -323.33984375 -0.671875 C-322.35371094 -1.46335937 -321.36757813 -2.25484375 -320.3515625 -3.0703125 C-291.03280416 -26.21862232 -257.42743574 -41.58654886 -221.33984375 -50.671875 C-220.50098633 -50.88328125 -219.66212891 -51.0946875 -218.79785156 -51.3125 C-143.83928691 -69.70266588 -59.15168576 -49.60533527 0 0 Z " fill="#FEFEFE" transform="translate(1179.33984375,1079.671875)"/>
</svg>
